<?xml version="1.0" standalone="no"?>
<!DOCTYPE svg PUBLIC "-//W3C//DTD SVG 1.1//EN" "http://www.w3.org/Graphics/SVG/1.1/DTD/svg11.dtd" >
<!--
2013-9-30: Created.
-->
<svg>
<metadata>
Created by iconfont
</metadata>
<defs>

<font id="iconfont" horiz-adv-x="1024" >
  <font-face
    font-family="iconfont"
    font-weight="500"
    font-stretch="normal"
    units-per-em="1024"
    ascent="896"
    descent="-128"
  />
    <missing-glyph />
    
    <glyph glyph-name="money" unicode="&#59674;" d="M511.482719 833.579345c-246.954485 0-448.728978-202.227818-448.728978-449.754331 0-247.52549 201.774493-449.753307 448.728978-449.753307 246.955508 0 448.699302 202.227818 448.699302 449.753307C960.182021 631.351528 759.520885 833.579345 511.482719 833.579345L511.482719 833.579345zM511.482719-21.728628c-222.710314 0-404.632667 181.233668-404.632667 405.553643 0 224.320998 181.922353 405.554666 404.632667 405.554666 222.680639 0 404.604014-182.331675 404.604014-405.554666S735.276714-21.728628 511.482719-21.728628L511.482719-21.728628zM511.482719-21.728628M702.12057 642.770602 562.802548 406.576181l109.803825 0 0-52.192709L544.676725 354.383472l0-71.928193 127.929648 0 0-52.852742L544.676725 229.602537l0-104.722086-65.793472 0L478.883253 229.602537l-132.640949 0 0 52.852742 132.640949 0 0 71.928193-132.640949 0 0 52.192709 113.139803 0L321.411779 642.770602l74.196863 0c64.476477-117.313869 103.624079-191.70209 117.504204-223.150336l1.346671 0c4.714372 12.941753 17.569144 39.030945 38.621623 78.298274l78.882582 144.852062L702.12057 642.770602 702.12057 642.770602z"  horiz-adv-x="1024" />

    
    <glyph glyph-name="setting" unicode="&#58922;" d="M538.947368 239.023158a147.402105 147.402105 0 0 0-147.240421 147.294316A147.348211 147.348211 0 0 0 538.947368 533.450105a147.348211 147.348211 0 0 0 147.240421-147.132631A147.402105 147.402105 0 0 0 538.947368 239.023158m0 345.465263a198.440421 198.440421 0 0 1-198.224842-198.224842A198.440421 198.440421 0 0 1 538.947368 188.092632a198.440421 198.440421 0 0 1 198.224843 198.224842A198.440421 198.440421 0 0 1 538.947368 584.488421m483.759158-269.473684c-2.694737-15.413895-21.557895-36.971789-42.199579-41.714526l-17.084631-4.149895a162.492632 162.492632 0 0 1-93.776842-75.237053 165.618526 165.618526 0 0 1-16.222316-123.79621l3.449263-11.210106c6.090105-22.258526-0.754526-45.756632-17.084632-60.631579-1.616842-1.293474-16.922947-13.904842-56.751157-36.971789-39.127579-22.635789-57.559579-30.019368-60.631579-31.151158a43.277474 43.277474 0 0 0-15.629474-2.533053c-16.437895 0-34.492632 7.006316-43.924211 17.300211l-12.018526 12.719158c-29.696 28.348632-69.685895 42.522947-110.160842 42.522947-42.361263 0-85.315368-15.521684-117.652211-46.672842l-7.922526-8.677053c-13.904842-15.198316-44.193684-20.372211-59.607579-14.713263-0.215579 0-18.432 6.790737-60.254316 31.097263-37.510737 21.719579-53.894737 34.384842-56.158315 36.163369-16.168421 13.850947-24.360421 41.229474-18.108632 61.224421l5.497263 18.701474a165.241263 165.241263 0 0 1-117.867789 193.42821l-11.425684 2.479158c-19.671579 4.527158-39.235368 25.276632-43.331369 47.696842-1.077895 5.012211-2.802526 31.258947-2.802526 65.536 0 50.122105 3.449263 68.769684 3.772631 70.332632 3.179789 18.054737 23.174737 38.426947 42.253474 42.792421l19.671579 4.688842a161.037474 161.037474 0 0 1 91.405474 74.590316 165.025684 165.025684 0 0 1 16.330105 123.957894l-3.772632 11.964632c-6.036211 19.402105 1.724632 46.672842 16.707369 59.284211 2.802526 2.317474 18.755368 15.090526 57.451789 37.564631 42.199579 24.468211 59.769263 30.72 60.038737 30.82779 16.168421 6.090105 44.948211 1.940211 60.146526-14.551579l13.312-14.174316c57.775158-54.864842 164.864-53.032421 226.034527 5.01221l8.461473 9.377685c15.306105 16.491789 45.594947 19.671579 59.176421 14.874947 2.048-0.808421 20.48-7.922526 60.847158-31.258947 37.079579-21.557895 54.433684-34.708211 58.799158-38.750316 12.449684-10.617263 21.773474-37.834105 15.36-58.47579l-5.658947-19.078737a164.378947 164.378947 0 0 1 18.32421-116.682105c21.180632-36.864 54.810947-63.164632 99.004632-76.422737l11.802947-2.586947c19.671579-4.581053 39.235368-25.330526 43.385264-47.319579 0.700632-4.096 2.910316-27.109053 2.96421-65.751579 0-44.840421-2.856421-65.913263-4.149895-71.57221m50.714948 148.318315h0.053894c-7.060211 39.882105-42.145684 76.853895-81.758315 86.016l-10.24 2.15579a114.256842 114.256842 0 0 0-67.637895 52.601263 112.801684 112.801684 0 0 0-13.150316 78.524632l5.12 16.869052c11.856842 38.157474-1.940211 87.417263-29.803789 110.969263-6.844632 6.790737-28.725895 22.689684-67.69179 45.325474-41.876211 24.252632-62.895158 32.821895-68.769684 34.977684-32.444632 11.641263-84.075789 4.257684-114.256842-28.294737l-7.27579-8.192c-40.043789-37.834105-116.574316-39.720421-153.49221-4.850526L452.500211 862.531368C429.756632 887.107368 395.048421 896 370.202947 896c-11.695158 0-22.312421-1.832421-32.444631-5.497263-3.610947-1.293474-23.983158-8.946526-68.446316-34.762105-40.097684-23.174737-58.421895-37.349053-64.673684-42.576843-30.558316-25.977263-44.570947-74.805895-32.606316-113.55621l3.395368-10.617263c7.383579-28.833684 3.233684-58.960842-11.641263-84.938105a109.514105 109.514105 0 0 0-60.685473-50.661053l-17.51579-4.096C46.888421 540.294737 11.317895 503.592421 4.850526 466.997895 2.694737 457.404632 0 430.565053 0 386.425263c0-18.324211 0.431158-58.906947 4.311579-76.746105H4.257684c7.006316-40.043789 42.037895-77.069474 81.812211-86.231579l10.24-2.15579c57.559579-16.168421 92.860632-74.805895 80.842105-131.503157l-4.958316-16.384c-12.180211-39.289263 2.048-87.578947 34.384842-115.334737 6.144-4.850526 24.468211-18.647579 63.056842-41.06779 46.349474-26.785684 66.721684-34.223158 68.608-34.869894 9.539368-3.449263 20.156632-5.281684 31.528421-5.281685 24.037053 0 60.092632 8.784842 82.997895 33.576421l6.844632 7.653053c42.307368 40.421053 115.119158 41.660632 155.001263 3.664842l10.886737-11.587368c19.294316-20.911158 50.014316-32.606316 82.189473-33.522527 10.994526 0 21.827368 1.886316 32.498527 5.766737 7.168 2.694737 28.025263 11.371789 68.392421 34.708211 41.606737 24.198737 59.499789 38.426947 64.673684 42.792421a111.993263 111.993263 0 0 1 32.606316 113.286737l-3.395369 10.778947a114.149053 114.149053 0 0 0 11.425685 84.776421c14.282105 24.899368 37.187368 43.223579 62.949052 51.30779l15.306106 3.664842c38.858105 8.946526 74.374737 45.271579 80.141473 80.087579 3.395368 11.749053 5.605053 44.301474 5.605053 82.944-0.053895 18.216421-0.538947 58.475789-4.473263 76.638315"  horiz-adv-x="1078" />

    
    <glyph glyph-name="ziyuan" unicode="&#58896;" d="M802.667928-128h-581.432762A124.523517 124.523517 0 0 0 96.90546-3.573389v775.243683A124.523517 124.523517 0 0 0 221.235166 896h581.432762a124.523517 124.523517 0 0 0 124.426612-124.329706v-775.243683a124.523517 124.523517 0 0 0-124.426612-124.426611z m-581.432762 969.054604a69.481215 69.481215 0 0 1-69.38431-69.38431v-775.243683a69.481215 69.481215 0 0 1 69.38431-69.481215h581.432762A69.481215 69.481215 0 0 1 872.149144-3.573389v775.243683a69.481215 69.481215 0 0 1-69.481216 69.38431zM511.951547 278.809123a163.188795 163.188795 0 1 0 163.188796 163.188795 163.382606 163.382606 0 0 0-163.188796-163.188795z m0 271.335289A108.243399 108.243399 0 1 1 620.194947 441.997918a108.243399 108.243399 0 0 1-108.2434 108.146494zM376.380808 427.171383a30.719031 30.719031 0 0 0-5.135989 0.484527 749.27302 749.27302 0 0 0-261.644743 103.204315 27.521151 27.521151 0 0 0 29.071638 46.514621 692.777136 692.777136 0 0 1 242.263651-95.742595 27.424245 27.424245 0 0 0-5.039084-54.460868zM647.619192 427.171383a27.424245 27.424245 0 0 0-5.039084 54.460868 693.455475 693.455475 0 0 1 242.263651 95.742595 27.521151 27.521151 0 0 0 29.071638-46.514621 749.27302 749.27302 0 0 0-261.644743-103.204315 30.719031 30.719031 0 0 0-4.651462-0.484527z"  horiz-adv-x="1024" />

    
    <glyph glyph-name="moneybag" unicode="&#60287;" d="M637.458 895.672c-11.774 0-21.33-9.556-21.33-21.33H573.5c0 11.774-9.556 21.33-21.33 21.33S530.84 886.116 530.84 874.342h-42.628c0 11.774-9.556 21.33-21.33 21.33s-21.298-9.556-21.298-21.33h-42.66c0 11.774-9.526 21.33-21.298 21.33-11.774 0-21.33-9.556-21.33-21.33l85.29-213.208h127.918l85.258 213.208C658.758 886.116 649.232 895.672 637.458 895.672zM509.916 704.67c-449.994 0-562.764-832.342 3.84-832.342 566.608 0 446.154 832.342-3.84 832.342zM530.84 511.918c0 11.774-9.526 21.298-21.298 21.298s-21.33-9.526-21.33-21.298c0-0.842 0.062-1.686 0.156-2.498v-466.544c0-11.774 9.556-21.33 21.33-21.33s21.298 9.556 21.298 21.33V511.918h-0.156zM616.128 682.464H402.922c-11.774 0-21.298 9.556-21.298 21.33a21.284 21.284 0 0 0 21.298 21.298h213.208c11.774 0 21.33-9.524 21.33-21.298-0.002-11.772-9.558-21.33-21.332-21.33zM603.48 216.108l-152.838 152.746c-19.894 19.862-25.766 36.07-22.798 43.286 4.154 9.994 26.452 14.49 46.72 14.49h141.722c11.774 0 21.33 9.556 21.33 21.33s-9.556 21.298-21.33 21.298h-141.722c-60.212 0-79.792-25.578-86.102-40.818-14.708-35.54 13.772-71.486 32.042-89.754l152.84-152.746c19.894-19.862 25.796-36.07 22.796-43.286-4.152-10.024-26.452-14.49-46.718-14.49h-146.344c-11.774 0-21.298-9.556-21.298-21.33s9.524-21.33 21.298-21.33h146.344c60.21 0 79.792 25.61 86.102 40.85 14.708 35.538-13.742 71.484-32.044 89.754z"  horiz-adv-x="1024" />

    
    <glyph glyph-name="liquan" unicode="&#58891;" d="M512 384zM512 384zM508.672 229.12h-0.256 0.256zM508.672 239.104a20.992 20.992 0 0 0-21.248 20.992v76.8h-165.12a20.992 20.992 0 0 0 0 41.984H486.4v62.976h-164.096a20.992 20.992 0 0 0 0 41.984H486.4L362.496 614.4a21.248 21.248 0 0 0-6.4 15.104 20.992 20.992 0 0 0 20.992 20.992 22.272 22.272 0 0 0 15.104-6.144l110.592-115.2h12.8l116.736 113.92a21.76 21.76 0 0 0 13.824 5.12 21.248 21.248 0 0 0 14.848-6.144 21.504 21.504 0 0 0 0-29.184L529.92 483.84h164.608a20.992 20.992 0 1 0 0-41.984h-164.864v-61.952h164.864a20.992 20.992 0 1 0 0-41.984h-164.864v-76.8a20.992 20.992 0 0 0-20.992-22.016zM542.976 110.848a21.248 21.248 0 0 0 0 42.24h108.544a21.248 21.248 0 1 0 0-42.24zM310.528 110.848a21.248 21.248 0 1 0 0 42.24h108.544a20.992 20.992 0 0 0 20.992-19.968 21.504 21.504 0 0 0-21.248-22.272zM775.68 110.848a21.248 21.248 0 0 0 0 42.24h139.52a21.248 21.248 0 1 0 0-42.24zM722.944-102.4a112.896 112.896 0 0 0-79.872 34.304 174.848 174.848 0 0 1-249.856 0 140.544 140.544 0 0 0-92.16-34.304h-161.28A114.944 114.944 0 0 0 25.6 12.288V755.968A114.432 114.432 0 0 0 139.776 870.4H307.2a112.896 112.896 0 0 0 79.872-34.048A177.408 177.408 0 0 1 512 783.104a179.2 179.2 0 0 1 124.928 52.48A112.128 112.128 0 0 0 716.8 870.4h167.424A114.432 114.432 0 0 0 998.4 755.968v-743.936A114.432 114.432 0 0 0 884.224-102.4z m-204.8 128a220.16 220.16 0 0 0 154.88-65.024 70.4 70.4 0 0 1 49.664-22.016h161.536a71.936 71.936 0 0 1 71.936 71.936V755.968a71.936 71.936 0 0 1-71.936 71.936H716.8a70.144 70.144 0 0 1-51.2-22.272 219.136 219.136 0 0 0-153.6-64.512 219.136 219.136 0 0 0-153.6 64.768 69.376 69.376 0 0 1-51.2 22.016H139.776a71.936 71.936 0 0 1-71.936-71.936V153.6h118.528a21.248 21.248 0 0 0 0-42.24H67.84v-98.816a71.936 71.936 0 0 1 71.936-71.936h161.28a98.816 98.816 0 0 1 64.256 24.064 223.744 223.744 0 0 0 153.6 62.976z"  horiz-adv-x="1024" />

    
    <glyph glyph-name="guanli" unicode="&#59128;" d="M1204.906667 359.619048H315.489524a24.380952 24.380952 0 1 0 0 48.761904h889.417143a24.380952 24.380952 0 1 0 0-48.761904zM1197.83619-128H309.394286a24.380952 24.380952 0 1 0 0 48.761905h888.441904a24.380952 24.380952 0 1 0 0-48.761905zM1197.83619 847.238095H309.394286a24.380952 24.380952 0 0 0 0 48.761905h888.441904a24.380952 24.380952 0 1 0 0-48.761905zM194.072381 359.619048H30.47619a24.380952 24.380952 0 1 0 0 48.761904h163.596191a24.380952 24.380952 0 0 0 0-48.761904zM187.977143-128H24.380952a24.380952 24.380952 0 1 0 0 48.761905h163.596191a24.380952 24.380952 0 0 0 0-48.761905zM187.977143 847.238095H24.380952a24.380952 24.380952 0 1 0 0 48.761905h163.596191a24.380952 24.380952 0 0 0 0-48.761905z"  horiz-adv-x="1229" />

    
    <glyph glyph-name="baifenbi" unicode="&#59129;" d="M776.970298-20.362026a165.653301 165.653301 0 0 0-46.366064 6.5334l-73.131928 21.075484a168.603869 168.603869 0 0 0-116.547424 208.015023l109.592515 385.259839a168.603869 168.603869 0 0 0 209.068797 116.758179l73.131928-21.075483a168.603869 168.603869 0 0 0 116.125914-208.647288l-109.592514-385.259839a168.603869 168.603869 0 0 0-162.281224-122.659315z m36.671342 701.181339a126.452901 126.452901 0 0 1-121.816295-91.889109l-108.749496-385.259839a126.452901 126.452901 0 0 1 87.041747-156.169334l73.131928-21.075483a126.452901 126.452901 0 0 1 155.958579 87.252502l109.38176 385.470594a126.452901 126.452901 0 0 1-88.306277 156.169334l-72.921173 21.075483a121.184031 121.184031 0 0 1-33.720773 4.425852zM241.653015 131.802966a163.545753 163.545753 0 0 0-45.944554 6.5334l-73.131928 21.075483A168.603869 168.603869 0 0 0 6.450619 367.637627L116.043133 753.108221a168.603869 168.603869 0 0 0 208.225778 116.125915l73.131928-21.075484a168.603869 168.603869 0 0 0 116.125914-208.225777l-109.592514-386.313614a168.603869 168.603869 0 0 0-162.281224-122.659315zM278.324357 832.984304a126.452901 126.452901 0 0 1-121.816295-91.889108l-109.592515-385.25984a126.452901 126.452901 0 0 1 87.252502-156.169333l72.921173-21.075484a126.452901 126.452901 0 0 1 156.380088 87.041747l109.38176 385.470595a126.452901 126.452901 0 0 1-87.041747 156.169333l-73.131928 21.075484a120.762521 120.762521 0 0 1-34.353038 4.636606zM381.804981-127.846992a26.555109 26.555109 0 0 0-5.69038 0 21.075484 21.075484 0 0 0-14.542084 26.1336L640.401165 880.614897a21.13871 21.13871 0 1 0 40.675683-11.591516L402.037445-112.461889a21.075484 21.075484 0 0 0-20.232464-15.385103z"  horiz-adv-x="1055" />

    
    <glyph glyph-name="fenlei" unicode="&#59130;" d="M378.434783 406.26087H111.304348a111.304348 111.304348 0 0 0-111.304348 111.304347V784.695652a111.304348 111.304348 0 0 0 111.304348 111.304348h267.130435a111.304348 111.304348 0 0 0 111.304347-111.304348v-267.130435a111.304348 111.304348 0 0 0-111.304347-111.304347zM111.304348 851.478261a66.782609 66.782609 0 0 1-66.782609-66.782609v-267.130435a66.782609 66.782609 0 0 1 66.782609-66.782608h267.130435a66.782609 66.782609 0 0 1 66.782608 66.782608V784.695652a66.782609 66.782609 0 0 1-66.782608 66.782609zM378.434783-128H111.304348a111.304348 111.304348 0 0 0-111.304348 111.304348V250.434783a111.304348 111.304348 0 0 0 111.304348 111.304347h267.130435a111.304348 111.304348 0 0 0 111.304347-111.304347v-267.130435a111.304348 111.304348 0 0 0-111.304347-111.304348zM111.304348 317.217391a66.782609 66.782609 0 0 1-66.782609-66.782608v-267.130435a66.782609 66.782609 0 0 1 66.782609-66.782609h267.130435a66.782609 66.782609 0 0 1 66.782608 66.782609V250.434783a66.782609 66.782609 0 0 1-66.782608 66.782608zM779.130435-128h-133.565218a111.304348 111.304348 0 0 0-111.304347 111.304348V250.434783a111.304348 111.304348 0 0 0 111.304347 111.304347h267.130435a111.304348 111.304348 0 0 0 111.304348-111.304347v-133.565218a22.26087 22.26087 0 0 0-44.521739 0v133.565218a66.782609 66.782609 0 0 1-66.782609 66.782608H645.565217a66.782609 66.782609 0 0 1-66.782608-66.782608v-267.130435a66.782609 66.782609 0 0 1 66.782608-66.782609h133.565218a22.26087 22.26087 0 0 0 0-44.521739zM912.695652 406.26087H645.565217a111.304348 111.304348 0 0 0-111.304347 111.304347V784.695652a111.304348 111.304348 0 0 0 111.304347 111.304348h267.130435a111.304348 111.304348 0 0 0 111.304348-111.304348v-267.130435a111.304348 111.304348 0 0 0-111.304348-111.304347zM645.565217 851.478261a66.782609 66.782609 0 0 1-66.782608-66.782609v-267.130435a66.782609 66.782609 0 0 1 66.782608-66.782608h267.130435a66.782609 66.782609 0 0 1 66.782609 66.782608V784.695652a66.782609 66.782609 0 0 1-66.782609 66.782609z"  horiz-adv-x="1024" />

    
    <glyph glyph-name="tishi" unicode="&#59131;" d="M512.088064-128a511.999795 511.999795 0 1 0 481.075008 336.895865 20.479992 20.479992 0 0 0-38.502385 13.926395 471.039812 471.039812 0 1 1-281.395087-281.395088 20.479992 20.479992 0 1 0 13.926394-38.502384A511.999795 511.999795 0 0 0 512.088064-128zM491.608072 199.679869a20.479992 20.479992 0 0 0-20.479992 25.39519l53.657579 214.425514-70.041572-14.540794a20.889592 20.889592 0 1 0-8.191997 40.959983l102.399959 20.479992a20.479992 20.479992 0 0 0 18.841593-5.939197 20.479992 20.479992 0 0 0 5.119998-19.046393l-52.428779-210.124716 26.009589 8.806397a20.520952 20.520952 0 0 0 13.107195-38.911985l-61.439975-20.479991A24.37119 24.37119 0 0 0 491.608072 199.679869zM573.528039 527.359738a20.479992 20.479992 0 0 0-20.479991 20.479992v61.439975a20.479992 20.479992 0 0 0 40.959983 0v-61.439975a20.479992 20.479992 0 0 0-20.479992-20.479992z"  horiz-adv-x="1024" />

    
    <glyph glyph-name="kaiguan" unicode="&#59132;" d="M511.26681-127.147484a496.129604 496.129604 0 0 0-209.18818 946.033308 21.302259 21.302259 0 1 0 17.893897-38.557089 456.720426 456.720426 0 0 1-129.091688-90.321576 454.164155 454.164155 0 1 1 512.745366 90.321576 21.302259 21.302259 0 0 0-10.864152 27.479914 21.302259 21.302259 0 0 0 28.332005 10.225084 496.129604 496.129604 0 0 0-209.827248-946.033307zM511.26681 325.951558a21.302259 21.302259 0 0 0-21.302259 21.302259V874.697741a21.302259 21.302259 0 0 0 42.604517 0v-527.443924a21.302259 21.302259 0 0 0-21.302258-21.302259z"  horiz-adv-x="1024" />

    
    <glyph glyph-name="xinfeng" unicode="&#59133;" d="M1048.380952-128H170.666667a170.666667 170.666667 0 0 0-170.666667 170.666667V725.333333a170.666667 170.666667 0 0 0 170.666667 170.666667h877.714285a170.666667 170.666667 0 0 0 170.666667-170.666667v-60.952381a24.380952 24.380952 0 0 0-11.946667-20.967619l-560.761904-335.238095a24.380952 24.380952 0 0 0-24.380953 0l-512 331.093333a24.380952 24.380952 0 1 0 26.331429 40.96L633.904762 357.912381 1170.285714 678.278095V725.333333a121.904762 121.904762 0 0 1-121.904762 121.904762H170.666667a121.904762 121.904762 0 0 1-121.904762-121.904762v-682.666666a121.904762 121.904762 0 0 1 121.904762-121.904762h877.714285a121.904762 121.904762 0 0 1 121.904762 121.904762V408.380952a24.380952 24.380952 0 0 0 48.761905 0v-365.714285a170.666667 170.666667 0 0 0-170.666667-170.666667z"  horiz-adv-x="1219" />

    
    <glyph glyph-name="ren" unicode="&#59134;" d="M189.086838-128a22.836575 22.836575 0 0 0-22.836575 22.836575 488.245966 488.245966 0 0 0 487.789235 487.789234 22.836575 22.836575 0 1 0 0-45.673149A442.572817 442.572817 0 0 1 211.923413-105.163425a22.836575 22.836575 0 0 0-22.836575-22.836575zM1118.992158-128a22.836575 22.836575 0 0 0-22.836575 22.836575 443.714645 443.714645 0 0 1-220.601311 382.512625 22.836575 22.836575 0 0 0 22.836575 39.507274A489.387795 489.387795 0 0 0 1141.828732-105.163425a22.836575 22.836575 0 0 0-22.836574-22.836575zM654.039498 340.606512a277.692748 277.692748 0 1 0 277.464382 277.692747 278.149479 278.149479 0 0 0-277.464382-277.692747z m0 509.48398a232.019598 232.019598 0 1 1 231.791233-231.791233A232.247964 232.247964 0 0 1 654.039498 850.090492zM22.836575-65.656151a22.836575 22.836575 0 0 0-22.836575 22.836574 418.137682 418.137682 0 0 0 417.68095 417.680951 22.836575 22.836575 0 0 0 0-45.67315A372.464533 372.464533 0 0 1 45.673149-42.819577a22.836575 22.836575 0 0 0-22.836574-22.836574zM417.68095 332.385345a239.098937 239.098937 0 0 0 0 478.197873 22.836575 22.836575 0 0 0 0-45.673149 193.425787 193.425787 0 0 1 0-386.851575 22.836575 22.836575 0 0 0 0-45.673149z"  horiz-adv-x="1142" />

    
    <glyph glyph-name="shijian" unicode="&#59135;" d="M512.087347-127.998566a511.999078 511.999078 0 1 0 481.074334 336.895393 20.479963 20.479963 0 0 0-38.50233 13.926375 471.039152 471.039152 0 1 1-280.985095-281.599493 20.479963 20.479963 0 1 0 13.926375-38.297531A506.469488 506.469488 0 0 0 512.087347-127.998566zM711.766988 301.466261H450.647458v337.919391a20.479963 20.479963 0 0 0 40.959926 0v-296.959465h220.159604a20.479963 20.479963 0 0 0 0-40.959926z"  horiz-adv-x="1024" />

    
    <glyph glyph-name="fenxiang" unicode="&#59137;" d="M439.794872 188.049383a24.311491 24.311491 0 0 0-18.233618 8.509022 24.311491 24.311491 0 0 0 2.188034 34.279202l705.033238 616.053181L802.279202 844.945869a24.311491 24.311491 0 0 0-24.311491 24.311491 24.311491 24.311491 0 0 0 24.311491 24.311491L1191.263058 896a27.471985 27.471985 0 0 0 17.261159-7.050332 24.311491 24.311491 0 0 0 7.050332-15.80247 11.912631 11.912631 0 0 0 0-2.917378v-356.892688a24.311491 24.311491 0 0 0-24.311491-24.311491 24.311491 24.311491 0 0 0-24.311491 24.311491V816.015195L455.840456 194.127255a24.311491 24.311491 0 0 0-16.045584-6.077872zM1094.260209-128h-972.459639a121.557455 121.557455 0 0 0-121.557455 121.557455v777.967711a121.557455 121.557455 0 0 0 121.557455 121.557455h316.049383a24.311491 24.311491 0 0 0 0-48.622982h-316.049383a72.934473 72.934473 0 0 1-72.934473-72.934473v-777.967711a72.934473 72.934473 0 0 1 72.934473-72.934473h972.459639a72.934473 72.934473 0 0 1 72.934473 72.934473V210.415954a24.311491 24.311491 0 0 0 24.311491 24.311491 24.311491 24.311491 0 0 0 24.311491-24.311491v-216.858499a121.557455 121.557455 0 0 0-121.557455-121.557455z"  horiz-adv-x="1216" />

    
    <glyph glyph-name="tupian" unicode="&#59138;" d="M814.32381-128H121.904762a121.904762 121.904762 0 0 0-121.904762 121.904762V774.095238a121.904762 121.904762 0 0 0 121.904762 121.904762h975.238095a121.904762 121.904762 0 0 0 121.904762-121.904762v-733.379048a24.380952 24.380952 0 0 0-13.897143-22.186666 24.380952 24.380952 0 0 0-25.843809 3.169524L812.129524 320.853333 627.078095 115.809524l204.556191-202.361905a24.380952 24.380952 0 0 0-17.310476-41.447619zM48.761905 236.495238V-6.095238a73.142857 73.142857 0 0 1 73.142857-73.142857h633.904762L241.371429 429.348571z m760.685714 142.384762a24.380952 24.380952 0 0 0 15.36-5.36381L1170.285714 91.428571V774.095238a73.142857 73.142857 0 0 1-73.142857 73.142857H121.904762a73.142857 73.142857 0 0 1-73.142857-73.142857v-468.601905L224.060952 481.52381a24.380952 24.380952 0 0 0 34.377143 0l334.019048-331.093334 198.948571 219.428572a24.380952 24.380952 0 0 0 18.041905 9.020952z"  horiz-adv-x="1219" />

    
    <glyph glyph-name="shuaxin" unicode="&#59139;" d="M1013.846301 539.632739H770.868623a20.504445 20.504445 0 1 0 0 41.008891h201.968787V809.061152a20.504445 20.504445 0 1 0 41.008891 0zM521.739612-127.992003a507.895113 507.895113 0 0 0-361.083284 147.837051 512.611135 512.611135 0 1 0 825.303927 582.121205 20.504445 20.504445 0 1 0-37.113046-17.428779 471.602244 471.602244 0 1 1-427.107597-671.520586h1.8454a469.5518 469.5518 0 0 1 426.697508 272.914168 20.545454 20.545454 0 1 0 37.318091-17.223734 510.970779 510.970779 0 0 0-463.60551-296.699325z"  horiz-adv-x="1024" />

    
    <glyph glyph-name="jisuan" unicode="&#59140;" d="M20.5998-127.99959a20.479992 20.479992 0 0 0-14.540794 35.020786L987.460213 888.422403a20.479992 20.479992 0 0 0 28.876789 0 20.479992 20.479992 0 0 0 0-29.081588L35.140594-121.855593A20.479992 20.479992 0 0 0 20.5998-127.99959zM512.119603 609.280115H20.5998a20.479992 20.479992 0 0 0 0 40.959983h491.519803a20.479992 20.479992 0 0 0 0-40.959983zM268.817301 363.520213a20.479992 20.479992 0 0 0-20.479992 20.479992V875.520008a20.479992 20.479992 0 0 0 40.959983 0v-491.519803a20.479992 20.479992 0 0 0-20.479991-20.479992zM1003.639407 117.760311H594.03957a20.479992 20.479992 0 0 0 0 40.959984h409.599837a20.479992 20.479992 0 0 0 0-40.959984zM1003.639407-127.99959H594.03957a20.479992 20.479992 0 0 0 0 40.959983h409.599837a20.479992 20.479992 0 0 0 0-40.959983z"  horiz-adv-x="1024" />

    
    <glyph glyph-name="xinhao" unicode="&#59141;" d="M307.2 36.864a20.48 20.48 0 0 0-10.24 2.8672 430.08 430.08 0 1 0 430.08 0 20.48 20.48 0 0 0-20.48 35.4304 389.12 389.12 0 1 1-389.12 0 20.48 20.48 0 0 0-10.24-38.2976zM638.1568 319.8976H394.8544a20.48 20.48 0 0 0 0 40.96h243.3024a20.48 20.48 0 0 0 0-40.96zM515.8912-128a20.48 20.48 0 0 0-20.48 20.48V340.3776a20.48 20.48 0 0 0 40.96 0V-107.52a20.48 20.48 0 0 0-20.48-20.48zM798.72-128H225.28a20.48 20.48 0 0 0 0 40.96h573.44a20.48 20.48 0 0 0 0-40.96zM515.8912 801.1776a20.48 20.48 0 0 0-20.48 20.48V875.52a20.48 20.48 0 1 0 40.96 0v-53.8624a20.48 20.48 0 0 0-20.48-20.48z"  horiz-adv-x="1024" />

    
    <glyph glyph-name="sousuo" unicode="&#59142;" d="M512-128a512 512 0 1 0 512 512 512 512 0 0 0-512-512z m0 983.04a471.04 471.04 0 1 1 471.04-471.04A471.04 471.04 0 0 1 512 855.04zM993.28-125.7472a20.48 20.48 0 0 0-14.5408 5.9392L885.5552-25.6a20.48 20.48 0 0 0 28.8768 29.0816l93.3888-93.3888a20.48 20.48 0 0 0 0-29.0816 20.48 20.48 0 0 0-14.5408-6.7584z"  horiz-adv-x="1024" />

    
    <glyph glyph-name="gouwuche" unicode="&#59143;" d="M1244.436111 51.554861H368.505469a25.396655 25.396655 0 0 0-25.396655 20.063358L175.490888 845.20034H25.396655a25.396655 25.396655 0 0 0 0 50.793311h170.411558a25.396655 25.396655 0 0 0 25.396655-20.063358l168.379825-773.582121H1244.436111a25.396655 25.396655 0 1 0 0-50.793311zM346.410379 235.426646a25.396655 25.396655 0 0 0-25.396656 21.587157 25.396655 25.396655 0 0 0 21.079224 28.952187l730.661774 113.777016 23.61889 267.172814c0 32.761685-14.222127 38.856883-94.729525 38.856882H402.790954a25.396655 25.396655 0 0 0 0 50.793311h598.599166c64.761471 0 145.268868 0 145.268868-91.935892l-25.396655-289.267904a25.396655 25.396655 0 0 0-21.333191-22.85699L350.473844 235.680612z m750.217198 142.22127zM428.441575-55.111091m-59.936106 0a59.936107 59.936107 0 1 1 119.872213 0 59.936107 59.936107 0 1 1-119.872213 0ZM428.695542-127.999492a72.888401 72.888401 0 1 0 72.634434 72.888401 73.142367 73.142367 0 0 0-72.634434-72.888401z m0 120.12618a47.491745 47.491745 0 1 1 47.237779-47.237779 47.491745 47.491745 0 0 1-47.237779 47.237779zM997.580621-55.111091m-59.936106 0a59.936107 59.936107 0 1 1 119.872213 0 59.936107 59.936107 0 1 1-119.872213 0ZM997.834588-127.999492a72.888401 72.888401 0 1 0 72.634434 72.888401 72.888401 72.888401 0 0 0-72.634434-72.888401z m0 120.12618a47.491745 47.491745 0 1 1 47.237779-47.237779 47.237779 47.237779 0 0 1-47.237779 47.237779z"  horiz-adv-x="1269" />

    
    <glyph glyph-name="bianji" unicode="&#59144;" d="M815.863808-128H143.300608a102.4 102.4 0 0 0-102.4 102.4V793.6a102.4 102.4 0 0 0 102.4 102.4h555.6224a20.48 20.48 0 0 0 0-40.96H143.300608a61.44 61.44 0 0 1-61.44-61.44v-819.2a61.44 61.44 0 0 1 61.44-61.44h672.5632a61.44 61.44 0 0 1 61.44 61.44V499.3024a20.48 20.48 0 1 0 40.96 0V-25.6a102.4 102.4 0 0 0-102.4-102.4zM327.620608 220.16a20.48 20.48 0 0 0-14.336 6.144 20.48 20.48 0 0 0 0 28.8768l634.88 634.88a20.48 20.48 0 0 0 28.8768 0 20.48 20.48 0 0 0 0-29.0816l-634.88-634.88A20.48 20.48 0 0 0 327.620608 220.16z"  horiz-adv-x="1024" />

    
    <glyph glyph-name="quanxian" unicode="&#59145;" d="M839.025948-127.795609H184.974052a102.195609 102.195609 0 0 0-102.195609 102.195609v327.025948a102.195609 102.195609 0 0 0 102.195609 102.195609h654.051896a102.195609 102.195609 0 0 0 102.195609-102.195609v-327.025948a102.195609 102.195609 0 0 0-102.195609-102.195609z m-654.051896 490.538922a61.317365 61.317365 0 0 1-61.317365-61.317365v-327.025948a61.317365 61.317365 0 0 1 61.317365-61.317365h654.051896a61.317365 61.317365 0 0 1 61.317365 61.317365v327.025948a61.317365 61.317365 0 0 1-61.317365 61.317365zM817.360479 549.965669a20.439122 20.439122 0 0 0-20.439122 20.439121 284.921357 284.921357 0 0 1-569.638323 0 20.439122 20.439122 0 0 0-40.878244 0 325.799601 325.799601 0 0 0 651.394811 0 20.439122 20.439122 0 0 0-20.439122-20.439121zM206.843912 362.743313a20.439122 20.439122 0 0 0-20.439122 20.439122v187.222355a20.439122 20.439122 0 0 0 40.878244 0v-187.222355a20.439122 20.439122 0 0 0-20.439122-20.439122zM512 229.684631m-40.878244 0a40.878244 40.878244 0 1 1 81.756488 0 40.878244 40.878244 0 1 1-81.756488 0ZM512 178.791218a51.097804 51.097804 0 1 0 51.097804 51.097804 51.097804 51.097804 0 0 0-51.097804-51.097804z m0 81.756487a30.658683 30.658683 0 1 1 30.658683-30.658683 30.658683 30.658683 0 0 1-30.658683 30.658683zM512 40.622754a20.439122 20.439122 0 0 0-20.439122 20.439122v149.001198a20.439122 20.439122 0 0 0 40.878244 0v-149.001198a20.439122 20.439122 0 0 0-20.439122-20.439122z"  horiz-adv-x="1024" />

    
    <glyph glyph-name="gouwu" unicode="&#59146;" d="M912.695652-128H111.304348a111.304348 111.304348 0 0 0-111.304348 111.304348V784.695652a111.304348 111.304348 0 0 0 111.304348 111.304348h801.391304a111.304348 111.304348 0 0 0 111.304348-111.304348v-801.391304a111.304348 111.304348 0 0 0-111.304348-111.304348zM111.304348 851.478261a66.782609 66.782609 0 0 1-66.782609-66.782609v-801.391304a66.782609 66.782609 0 0 1 66.782609-66.782609h801.391304a66.782609 66.782609 0 0 1 66.782609 66.782609V784.695652a66.782609 66.782609 0 0 1-66.782609 66.782609zM756.869565 625.307826m-44.521739 0a44.521739 44.521739 0 1 1 89.043478 0 44.521739 44.521739 0 1 1-89.043478 0ZM756.869565 569.878261a55.652174 55.652174 0 1 0 33.168696 99.283478 54.761739 54.761739 0 0 0 22.260869-36.730435 54.53913 54.53913 0 0 0-10.462608-41.182608 55.206957 55.206957 0 0 0-36.507826-22.26087 49.641739 49.641739 0 0 0-8.459131 0.890435z m0 89.043478h-4.897391a33.836522 33.836522 0 0 1-28.716522-38.288696 33.391304 33.391304 0 0 1 59.881739-15.137391 32.723478 32.723478 0 0 1 6.90087 24.709565 32.50087 32.50087 0 0 1-12.911304 22.26087 34.949565 34.949565 0 0 1-20.257392 6.455652zM257.335652 625.307826m-44.521739 0a44.521739 44.521739 0 1 1 89.043478 0 44.521739 44.521739 0 1 1-89.043478 0ZM257.335652 569.878261a55.652174 55.652174 0 1 0 55.652174 55.652174 55.652174 55.652174 0 0 0-55.652174-55.652174z m0 89.043478a33.391304 33.391304 0 1 1 33.391305-33.391304 33.391304 33.391304 0 0 1-33.391305 33.391304zM512 323.450435a277.147826 277.147826 0 0 0-276.925217 276.925217 22.26087 22.26087 0 1 0 44.521739 0 232.403478 232.403478 0 0 1 464.806956 0 22.26087 22.26087 0 0 0 44.521739 0A277.147826 277.147826 0 0 0 512 323.450435z"  horiz-adv-x="1024" />

    
    <glyph glyph-name="tianjia" unicode="&#59147;" d="M998.956522 365.523478H644.563478a22.26087 22.26087 0 0 0 0 44.521739h354.393044a22.26087 22.26087 0 1 0 0-44.521739zM509.217391 365.523478H25.043478a22.26087 22.26087 0 0 0 0 44.521739h484.173913a22.26087 22.26087 0 1 0 0-44.521739zM509.217391-128a22.26087 22.26087 0 0 0-22.260869 22.26087V873.73913a22.26087 22.26087 0 0 0 44.521739 0v-979.47826a22.26087 22.26087 0 0 0-22.26087-22.26087z"  horiz-adv-x="1024" />

    
    <glyph glyph-name="jinghaojian" unicode="&#59150;" d="M1194.381437 615.685989h-108.713086a24.375131 24.375131 0 0 0 0 48.750263H1194.381437a24.375131 24.375131 0 0 0 0-48.750263zM955.261398 615.685989H73.125394a24.375131 24.375131 0 0 0 0 48.750263h882.136004a24.375131 24.375131 0 0 0 0-48.750263zM1145.631174 96.008189H390.002102a24.375131 24.375131 0 0 0 0 48.750262h755.629072a24.375131 24.375131 0 1 0 0-48.750262zM250.332599 96.008189H24.375131a24.375131 24.375131 0 0 0 0 48.750262h225.957468a24.375131 24.375131 0 1 0 0-48.750262zM167.700904-127.999269a20.231359 20.231359 0 0 0-8.287545 1.706259 24.375131 24.375131 0 0 0-14.625079 31.200169L499.690193 879.912413a24.399506 24.399506 0 0 0 45.825247-16.81884l-354.901913-975.005255a24.375131 24.375131 0 0 0-22.912623-16.087587zM684.69744-127.999269a20.231359 20.231359 0 0 0-8.287545 1.706259 24.375131 24.375131 0 0 0-14.625078 31.200169l354.901912 975.005254a24.399506 24.399506 0 0 0 45.825247-16.81884l-354.901912-975.005255a24.375131 24.375131 0 0 0-22.912624-16.087587z"  horiz-adv-x="1219" />

    
    <glyph glyph-name="youjiantou" unicode="&#59151;" d="M735.550917-128a24.380209 24.380209 0 0 0-16.090939 6.095052 24.380209 24.380209 0 0 0-2.194218 34.376096l287.442668 328.40142a24.45335 24.45335 0 0 0 36.814116-32.181877l-287.68647-328.40142a24.380209 24.380209 0 0 0-18.285157-8.289271zM1194.630259 396.174501H24.380209a24.380209 24.380209 0 0 0 0 48.760419h1102.229266L630.472214 852.815823A24.40459 24.40459 0 0 0 661.678882 890.361345l548.310909-451.033873A24.380209 24.380209 0 0 0 1194.630259 396.174501z"  horiz-adv-x="1219" />

    
    <glyph glyph-name="xiazai" unicode="&#59152;" d="M616.373111 227.160061a22.421721 22.421721 0 0 0-17.040508 7.623385 22.421721 22.421721 0 0 0 2.242173 31.614627l264.800525 232.064813a22.421721 22.421721 0 0 0 29.596672-33.632582L631.171447 232.765492a22.421721 22.421721 0 0 0-14.798336-5.605431zM492.380994 118.638931a22.421721 22.421721 0 0 0-17.264725 8.296037L145.741187 527.611123a22.421721 22.421721 0 1 0 34.52945 28.475586l289.688636-352.245238V873.578279a22.421721 22.421721 0 1 0 44.843442 0v-732.517626a22.421721 22.421721 0 0 0-14.798336-21.076418 22.421721 22.421721 0 0 0-7.623385-1.345304zM919.290563-128H112.108605a112.108605 112.108605 0 0 0-112.108605 112.108605v108.52113a22.421721 22.421721 0 0 0 44.843442 0v-108.52113a67.265163 67.265163 0 0 1 67.265163-67.265163h807.181958a67.265163 67.265163 0 0 1 67.265163 67.265163v108.52113a22.421721 22.421721 0 0 0 44.843442 0v-108.52113a112.108605 112.108605 0 0 0-112.108605-112.108605z"  horiz-adv-x="1031" />

    
    <glyph glyph-name="yinfu" unicode="&#59153;" d="M1185.401905 606.841905h-526.628572a24.380952 24.380952 0 0 0 0 48.761905h526.628572a24.380952 24.380952 0 0 0 0-48.761905zM198.217143-128C88.746667-128 0-54.857143 0 32.670476s88.746667 159.695238 198.217143 159.695238a221.135238 221.135238 0 0 0 159.451428-63.146666 133.12 133.12 0 0 0 38.765715-98.742858c-4.87619-89.965714-90.453333-158.47619-198.217143-158.47619z m0 272.579048C115.809524 143.60381 48.761905 94.841905 48.761905 32.670476S115.809524-79.238095 198.217143-79.238095s146.285714 48.761905 149.455238 113.371428a85.333333 85.333333 0 0 1-24.380952 62.659048 172.617143 172.617143 0 0 1-125.074286 46.811429z m173.83619-111.908572zM955.245714-128c-104.838095 0-189.927619 73.142857-189.927619 164.327619s85.089524 164.08381 189.927619 164.08381a211.626667 211.626667 0 0 0 84.601905-17.066667 24.380952 24.380952 0 1 0-19.260952-44.617143 167.009524 167.009524 0 0 1-65.340953 12.921905c-77.775238 0-141.165714-51.687619-141.165714-115.321905S877.470476-79.238095 955.245714-79.238095s141.409524 50.712381 141.409524 115.565714a26.087619 26.087619 0 0 0 0 6.095238l78.994286 719.238095a100.449524 100.449524 0 0 1-16.822857 75.580953 26.575238 26.575238 0 0 1-19.748572 9.99619H548.08381c-24.380952 0-56.56381-39.009524-62.659048-91.184762L396.190476 30.47619a24.551619 24.551619 0 1 0-48.761905 5.851429L436.419048 761.904762c8.777143 75.093333 57.539048 134.095238 111.177142 134.095238h592.213334a74.605714 74.605714 0 0 0 56.07619-26.331429 146.285714 146.285714 0 0 0 29.013334-113.615238l-79.725715-723.870476c-2.194286-89.965714-84.845714-160.182857-189.927619-160.182857z"  horiz-adv-x="1226" />

    
    <glyph glyph-name="zuojiantou" unicode="&#59154;" d="M483.789868-128a24.379298 24.379298 0 0 0-18.528267 8.532754L177.585884 208.678106a24.379298 24.379298 0 0 0 2.43793 34.618604 24.379298 24.379298 0 0 0 34.37481-2.43793l287.675718-328.389145a24.379298 24.379298 0 0 0-2.43793-34.37481 24.379298 24.379298 0 0 0-15.846544-6.094825zM1194.6902 396.154909H24.483892a24.379298 24.379298 0 0 0-15.358957 43.39515L557.659141 890.567073a24.379298 24.379298 0 0 0 34.131017-3.413101 24.379298 24.379298 0 0 0-3.169308-34.374811L92.502134 444.913505H1194.6902a24.379298 24.379298 0 0 0 0-48.758596z"  horiz-adv-x="1219" />

    
    <glyph glyph-name="yun" unicode="&#59156;" d="M1140.545861-128H291.221477a291.221477 291.221477 0 0 0 0 582.442953h50.684563v28.635347a414.353468 414.353468 0 0 0 828.420582 0v-28.635347a291.221477 291.221477 0 0 0-28.635347-581.297539zM291.221477 397.17226a233.950783 233.950783 0 0 1 0-467.901566h849.324384a233.950783 233.950783 0 1 1 0 467.901566h-4.581655a28.635347 28.635347 0 0 0-28.635347 32.930648 356.796421 356.796421 0 1 1-709.583893 51.829978 320.42953 320.42953 0 0 1 4.295302-51.829978 28.635347 28.635347 0 0 0-6.872483-22.908277 28.635347 28.635347 0 0 0-21.47651-10.022371z"  horiz-adv-x="1435" />

    
    <glyph glyph-name="Wi-Fi" unicode="&#59157;" d="M1366.448802 563.590414a27.88671 27.88671 0 0 0-19.520697 8.087146 920.261438 920.261438 0 0 1-1299.24183 0 27.88671 27.88671 0 0 0-39.320262 0 27.88671 27.88671 0 0 0 0 39.599128 976.034858 976.034858 0 0 0 1377.882353 0 27.88671 27.88671 0 0 0-19.799564-47.686274zM362.527233 228.949891a27.88671 27.88671 0 0 0-19.520697 47.686275 501.960784 501.960784 0 0 0 708.601307 0 27.88671 27.88671 0 0 0 0-39.599129 27.88671 27.88671 0 0 0-39.320261 0 446.187364 446.187364 0 0 1-629.960785 0 27.88671 27.88671 0 0 0-19.799564-8.087146zM697.167756-58.283224m-55.77342 0a55.77342 55.77342 0 1 1 111.54684 0 55.77342 55.77342 0 1 1-111.54684 0ZM697.167756-127.721133a69.716776 69.716776 0 1 0 69.716776 69.716776 69.716776 69.716776 0 0 0-69.716776-69.716776z m0 111.546841a41.830065 41.830065 0 1 1 41.830065-41.830065 42.108932 42.108932 0 0 1-41.830065 41.830065z"  horiz-adv-x="1394" />

    
    <glyph glyph-name="shanchu" unicode="&#59158;" d="M910.741163-128H163.466363a116.761688 116.761688 0 0 0-116.761688 116.761688v630.513112a23.352338 23.352338 0 0 0 46.704675 0v-630.513112a70.057013 70.057013 0 0 1 70.057013-70.057013h747.2748a70.057013 70.057013 0 0 1 70.057013 70.057013v630.513112a23.352338 23.352338 0 1 0 46.704675 0v-630.513112a116.761688 116.761688 0 0 0-116.761688-116.761688zM1047.819384 762.658153H734.431015a23.352338 23.352338 0 0 0-16.346636 6.772178L638.219384 849.295325h-180.980615l-76.829191-76.82919a23.352338 23.352338 0 0 0-16.58016-6.772178H23.352338a23.352338 23.352338 0 0 0 0 46.704675h329.735005l77.062714 76.82919a23.352338 23.352338 0 0 0 16.346636 6.772178h200.59658a23.352338 23.352338 0 0 0 16.346636-6.772178l79.864994-79.864994h303.580388a23.352338 23.352338 0 0 0 0-46.704675zM710.144584 50.878905a23.352338 23.352338 0 0 0-23.352338 23.352338V619.2748a23.352338 23.352338 0 0 0 46.704675 0v-545.043557a23.352338 23.352338 0 0 0-23.352337-23.352338zM394.888027 50.878905a23.352338 23.352338 0 0 0-23.352337 23.352338V619.2748a23.352338 23.352338 0 0 0 46.704675 0v-545.043557a23.352338 23.352338 0 0 0-23.352338-23.352338z"  horiz-adv-x="1071" />

    
    <glyph glyph-name="xiangji" unicode="&#59159;" d="M912.666685-128H111.300815a111.300815 111.300815 0 0 0-111.300815 111.300815V562.065054a111.300815 111.300815 0 0 0 111.300815 111.300816h115.085043a22.260163 22.260163 0 1 0 0-44.520326H111.300815a66.780489 66.780489 0 0 1-66.780489-66.78049v-578.764239a66.780489 66.780489 0 0 1 66.780489-66.780489h801.36587a66.780489 66.780489 0 0 1 66.780489 66.780489V562.065054a66.780489 66.780489 0 0 1-66.780489 66.78049h-89.040652a22.260163 22.260163 0 0 0 0 44.520326h89.040652a111.300815 111.300815 0 0 0 111.300815-111.300816v-578.764239a111.300815 111.300815 0 0 0-111.300815-111.300815zM511.98375 163.162933A198.560654 198.560654 0 1 0 710.544404 361.723587c0-7.123252 0-14.246504-1.113008-22.260163a22.371464 22.371464 0 0 0-44.520326 4.674634v16.472521a154.040328 154.040328 0 1 1-154.040328-154.040328 152.482117 152.482117 0 0 1 91.266668 30.05122 22.260163 22.260163 0 1 0 27.602603-34.503253A197.892849 197.892849 0 0 0 511.98375 163.162933zM226.385858 628.845544a22.260163 22.260163 0 0 0-18.698537 34.503252l144.69106 222.601631a22.260163 22.260163 0 0 0 19.811545 10.017073H656.67481a22.260163 22.260163 0 0 0 17.80813-8.904065l166.951223-222.601631a22.260163 22.260163 0 1 0-35.616261-26.712195L645.544728 851.447174H383.097406l-138.013011-212.361955a22.260163 22.260163 0 0 0-18.698537-10.239675z"  horiz-adv-x="1024" />

    
    <glyph glyph-name="zhuye" unicode="&#59160;" d="M884.267098-127.98219h-171.198741a22.262515 22.262515 0 0 0 0 44.52503h171.198741a58.77304 58.77304 0 0 1 58.327789 59.21829v489.775331a22.262515 22.262515 0 0 0 44.525031 0v-489.775331a103.29807 103.29807 0 0 0-102.85282-103.74332zM408.071901-127.98219h-169.41774a103.29807 103.29807 0 0 0-102.852819 103.74332v489.775331a22.262515 22.262515 0 0 0 44.52503 0v-489.775331a58.77304 58.77304 0 0 1 58.327789-59.21829h148.045726l2.226251 249.562794a22.262515 22.262515 0 0 0 22.262515 22.262515l351.302488-2.448877a22.262515 22.262515 0 0 0 22.262515-22.262515 22.262515 22.262515 0 0 0-22.262515-22.262515l-329.039973 2.226252-2.226251-249.340169a22.262515 22.262515 0 0 0-23.153016-22.262515zM22.262515 306.804729a22.262515 22.262515 0 0 0-15.806386 37.846276L544.763743 889.414748a22.262515 22.262515 0 0 0 31.612772 0l530.515734-536.526613a22.262515 22.262515 0 1 0-31.612772-31.390146L560.570129 842.218216 38.291526 313.483484a22.262515 22.262515 0 0 0-16.029011-6.678755z"  horiz-adv-x="1113" />

    
    <glyph glyph-name="biaoqian" unicode="&#59161;" d="M732.173577 581.677478a22.260802 22.260802 0 0 0-15.805169 6.678241 93.940584 93.940584 0 0 0 0 133.564811l147.1439 146.476076a94.452582 94.452582 0 0 0 133.564811-133.564811l-63.665894-63.443285a22.260802 22.260802 0 0 0-31.610338 31.38773l63.665893 63.665893a49.641588 49.641588 0 0 1 0 70.121526 50.977236 50.977236 0 0 1-70.121526 0l-147.589116-146.253468a50.086804 50.086804 0 0 1 0-70.121525 22.260802 22.260802 0 0 0 0-31.387731 22.260802 22.260802 0 0 0-15.582561-7.123457zM460.146579-127.996883a81.029319 81.029319 0 0 0-57.878085 23.819057l-378.433631 378.433631a81.919751 81.919751 0 0 0 0 115.533562l378.433631 378.433631a22.260802 22.260802 0 0 0 14.246913 6.455632l388.6736 26.93557a22.305323 22.305323 0 0 0 3.116512-44.521603l-378.433631-26.267746L55.445202 358.179028a37.175539 37.175539 0 0 1 0-52.535492l378.433631-378.433631a38.733795 38.733795 0 0 1 52.7581 0l370.64235 370.864958-22.260802 220.381938a22.260802 22.260802 0 0 0 19.812114 24.486882 22.260802 22.260802 0 0 0 24.486882-19.812113l23.819058-231.067123a22.260802 22.260802 0 0 0-6.455633-17.808642l-378.433631-378.433631A81.029319 81.029319 0 0 0 460.146579-127.996883z"  horiz-adv-x="1024" />

    
    <glyph glyph-name="tongzhi" unicode="&#59162;" d="M511.668394 778.390328a22.107081 22.107081 0 0 0-22.107081 22.107081V873.008636a22.107081 22.107081 0 0 0 44.214162 0v-73.39551a22.107081 22.107081 0 0 0-22.107081-21.222798zM953.810017 84.006908h-884.283247a22.107081 22.107081 0 1 0 0 44.214163h59.689119c6.411054 384.884283 176.856649 694.38342 387.537133 694.38342 184.151986 0 340.006908-231.240069 378.915372-562.183075a22.261831 22.261831 0 1 0-44.214163-5.084628c-35.592401 303.088083-176.856649 523.053541-334.922279 523.05354-185.699482 0-337.354059-289.823834-343.322971-650.169257h780.601036a22.107081 22.107081 0 0 0 0-44.214163zM511.668394-127.778929a161.160622 161.160622 0 0 0-160.276339 160.71848 22.107081 22.107081 0 0 0 44.214163 0 116.946459 116.946459 0 0 1 233.671848 0 22.107081 22.107081 0 0 0 44.214162 0 161.160622 161.160622 0 0 0-161.823834-160.71848z"  horiz-adv-x="1024" />

    
    <glyph glyph-name="xiaoxi" unicode="&#59163;" d="M58.222983-127.999547a22.654857 22.654857 0 0 0-15.631851 6.116812 22.654857 22.654857 0 0 0-6.34336 22.654857l55.051303 231.532641a463.29183 463.29183 0 0 0-90.619429 275.029966c0 269.366252 233.798127 488.665271 521.061716 488.665271s521.061716-219.299018 521.061716-488.665271-233.798127-488.438722-521.061716-488.438721a548.927191 548.927191 0 0 0-191.660092 33.076091L64.339795-127.093353a22.654857 22.654857 0 0 0-6.116812-0.906194zM521.061716 849.784091C258.71847 849.784091 45.309714 650.874445 45.309714 406.428535a418.661762 418.661762 0 0 1 88.127395-256.226435 22.654857 22.654857 0 0 0 3.851326-19.03008l-48.481395-203.893715 235.157418 70.230057a22.654857 22.654857 0 0 0 14.725658 0A503.617476 503.617476 0 0 1 521.061716-36.247375c262.343247 0 475.752002 198.683098 475.752002 443.129007S783.178415 849.784091 521.061716 849.784091zM341.18215 487.532924m-52.106172 0a52.106172 52.106172 0 1 1 104.212344 0 52.106172 52.106172 0 1 1-104.212344 0ZM341.18215 424.099324a63.4336 63.4336 0 1 0 63.4336 63.4336 63.660149 63.660149 0 0 0-63.4336-63.4336z m0 103.985795a40.778743 40.778743 0 1 1 40.778743-40.552195 40.778743 40.778743 0 0 1-40.778743 40.099097zM700.941283 487.532924m-52.106172 0a52.106172 52.106172 0 1 1 104.212343 0 52.106172 52.106172 0 1 1-104.212343 0ZM700.941283 424.099324a63.4336 63.4336 0 1 0 63.207051 63.4336 63.660149 63.660149 0 0 0-63.207051-63.4336z m0 103.985795a40.778743 40.778743 0 1 1 40.552194-40.552195 40.778743 40.778743 0 0 1-40.552194 40.099097z"  horiz-adv-x="1043" />

    
    <glyph glyph-name="dingwei" unicode="&#59166;" d="M511.898594 384.912656a155.55714 155.55714 0 1 0 155.354327 155.55714 152.717766 152.717766 0 0 0-9.329372-53.136859 20.281244 20.281244 0 1 0-38.128738 13.791246 112.358091 112.358091 0 0 1 6.895623 39.345613 114.79184 114.79184 0 1 1-114.79184-114.994652 112.358091 112.358091 0 0 1 39.1428 7.098435 20.281244 20.281244 0 0 0 26.974055-11.357497 20.281244 20.281244 0 0 0-12.168747-25.959992 152.920578 152.920578 0 0 0-53.948108-10.343434zM511.898594-128l-15.008121 16.63062C481.882353-94.535948 126.149337 302.773619 126.149337 510.04793a385.95207 385.95207 0 0 0 771.904139 0c0-207.274312-355.733016-604.583878-370.943949-621.41731z m0 983.437512a344.781145 344.781145 0 0 1-344.781145-344.781144c0-169.145573 277.04179-498.512973 344.781145-577.204199 68.347792 78.691226 344.781145 408.058625 344.781145 577.204199a344.781145 344.781145 0 0 1-344.781145 344.781144z"  horiz-adv-x="1024" />

    
    <glyph glyph-name="lianjie" unicode="&#59167;" d="M391.070784 101.5808A120.832 120.832 0 0 0 305.259584 138.24l-4.9152 4.9152a124.3136 124.3136 0 0 0 0 175.5136l334.0288 333.2096a20.48 20.48 0 0 0 29.0816 0 20.48 20.48 0 0 0 0-28.8768L329.425984 288.9728a83.3536 83.3536 0 0 1 0-117.76l4.7104-4.7104a80.6912 80.6912 0 0 1 115.3024 0 20.48 20.48 0 0 0 28.8768 0 20.48 20.48 0 0 0 0-29.0816 122.88 122.88 0 0 0-87.2448-35.84zM463.979584 132.3008a20.48 20.48 0 0 0-14.9504 6.3488 20.48 20.48 0 0 0 0 29.0816L765.854784 467.3536A227.36896 227.36896 0 0 1 443.909184 788.48L162.309184 485.1712a20.48 20.48 0 0 0-29.696 27.8528L414.417984 816.9472a268.288 268.288 0 0 0 379.904-378.88L477.905984 138.24a20.48 20.48 0 0 0-13.9264-5.9392zM395.576384-128a330.9568 330.9568 0 0 0-234.2912 97.28l-52.6336 52.6336A327.68 327.68 0 0 0 12.190784 257.4336a323.584 323.584 0 0 0 97.6896 231.6288L406.021184 805.6832a20.48 20.48 0 0 0 29.0816 0 20.48 20.48 0 0 0 0-28.8768L139.166784 460.3904A283.648 283.648 0 0 1 53.150784 257.2288a286.72 286.72 0 0 1 84.5824-206.4384l52.4288-52.4288a291.0208 291.0208 0 0 1 411.0336 0L976.593984 373.76a20.48 20.48 0 0 0 28.8768 0 20.48 20.48 0 0 0 0-28.8768L630.072384-30.72A331.1616 331.1616 0 0 0 395.576384-128z"  horiz-adv-x="1024" />

    
    <glyph glyph-name="dianzan" unicode="&#59168;" d="M781.938616-127.098393h-405.72309a22.540172 22.540172 0 0 0 0 45.080343h402.116663c4.508034 1.577812 40.572309 17.13053 66.493506 111.123047 0 2.704821 45.080343 131.634603 90.160687 318.943429 9.917676 41.699318 6.311248 71.677746-10.819282 91.513097-41.473916 47.559762-159.359014 36.74048-245.46247 28.85142l-28.85142-2.479419c-107.742021-9.24147-502.195025-14.200308-518.423949-14.42571a47.559762 47.559762 0 0 1-47.785164-47.559762v-438.406339a47.559762 47.559762 0 0 1 47.785164-47.559763h83.398636a22.540172 22.540172 0 0 0 0-45.080343h-83.398636a92.640106 92.640106 0 0 0-92.640105 92.640106V403.948052a92.640106 92.640106 0 0 0 92.640105 92.640106c3.831829 0 409.329518 5.184239 515.493727 14.200308l27.724411 2.479419c100.979969 9.24147 226.979529 20.96236 283.55536-45.080344 27.048206-31.105437 34.035659-75.509575 20.736958-131.409201-45.080343-189.562844-90.160687-320.521241-90.160687-321.873651-35.838873-130.507594-97.598943-142.003082-104.586396-142.904689zM222.716957-127.098393a22.540172 22.540172 0 0 0-22.540172 22.540172l1.35241 578.831609a22.540172 22.540172 0 0 0 22.540172 22.540171 22.540172 22.540172 0 0 0 22.540172-22.540171L245.257128-104.558221a22.540172 22.540172 0 0 0-22.540171-22.540172zM275.010155 453.761831a22.652873 22.652873 0 0 0-4.733436 45.080344 205.340964 205.340964 0 0 1 124.421748 91.513097 195.64869 195.64869 0 0 1 26.597402 149.215936 127.960555 127.960555 0 1 0 249.745103 55.899626 403.469073 403.469073 0 0 0-53.194805-322.324455 22.540172 22.540172 0 0 0-37.867489 24.343385 357.03632 357.03632 0 0 1 47.334361 288.514198 82.72243 82.72243 0 0 1-36.515078 52.293198 80.919216 80.919216 0 0 1-62.210874 11.044685 82.497028 82.497028 0 0 1-63.112481-98.500551 241.856042 241.856042 0 0 0-32.683249-183.026194 251.097513 251.097513 0 0 0-152.822364-112.700858 17.581334 17.581334 0 0 0-4.958838-1.352411z"  horiz-adv-x="1024" />

    
    <glyph glyph-name="pinglun" unicode="&#59171;" d="M1002.263728 38.818633h-154.319815a27.168982 27.168982 0 0 0 0 54.337963h154.319815a87.75581 87.75581 0 0 1 86.669051 87.755811V754.177916A87.48412 87.48412 0 0 1 1001.448659 841.662037H142.093773A87.75581 87.75581 0 0 1 54.337963 754.177916v-573.265509a87.75581 87.75581 0 0 1 87.75581-87.755811h474.098728a27.168982 27.168982 0 1 0 0-54.337963H142.093773A142.365463 142.365463 0 0 0 0 180.912407V754.177916A142.093773 142.093773 0 0 0 142.093773 896h860.169955a141.822084 141.822084 0 0 0 141.007014-141.822084v-573.265509a142.093773 142.093773 0 0 0-141.007014-142.093774zM316.246945 467.545162m-57.326551 0a57.326551 57.326551 0 1 1 114.653102 0 57.326551 57.326551 0 1 1-114.653102 0ZM316.518635 396.63412a70.911042 70.911042 0 1 0 70.911041 70.911042 70.911042 70.911042 0 0 0-70.911041-70.911042z m0 114.653102a43.74206 43.74206 0 1 1 43.74206-43.74206 43.74206 43.74206 0 0 1-43.74206 43.74206zM579.242686 467.273472m-57.326551 0a57.326551 57.326551 0 1 1 114.653102 0 57.326551 57.326551 0 1 1-114.653102 0ZM579.242686 396.63412a69.280903 69.280903 0 0 0-24.452083 4.347037 70.911042 70.911042 0 0 0-42.111922 91.016088 69.552593 69.552593 0 0 0 36.949815 39.938403 70.367662 70.367662 0 0 0 54.337963 2.173518 69.552593 69.552593 0 0 0 39.666713-37.221504 70.367662 70.367662 0 0 0 2.173519-54.337963 69.552593 69.552593 0 0 0-36.949815-39.938403 70.095972 70.095972 0 0 0-29.61419-5.977176z m0 114.653102a44.55713 44.55713 0 0 1-18.474908-4.075347 43.74206 43.74206 0 0 1 3.260278-81.506945 44.01375 44.01375 0 0 1 33.689537 1.358449 43.47037 43.47037 0 0 1 22.550255 24.452083 43.198681 43.198681 0 0 1 0 33.417848 43.74206 43.74206 0 0 1-24.452083 22.821944 41.840232 41.840232 0 0 1-16.573079 3.531968zM827.567177 467.273472m-57.326551 0a57.326551 57.326551 0 1 1 114.653102 0 57.326551 57.326551 0 1 1-114.653102 0ZM827.838867 396.63412a70.911042 70.911042 0 0 0-24.723773 4.347037 71.182732 71.182732 0 0 0-5.162107 130.954491 70.911042 70.911042 0 0 0 94.276366-35.047986 70.367662 70.367662 0 0 0 2.173518-54.337963 71.182732 71.182732 0 0 0-66.564004-46.458959z m0 114.653102a44.55713 44.55713 0 0 1-18.474908-4.075347 42.383611 42.383611 0 0 1-22.550254-24.452084 43.198681 43.198681 0 0 1 25.810532-56.239792 43.198681 43.198681 0 0 1 33.417847 1.35845 43.74206 43.74206 0 0 1 22.821945 24.452083 43.74206 43.74206 0 0 1-27.168982 56.239792 41.296852 41.296852 0 0 1-13.85618 2.716898zM803.115094-127.998913a27.168982 27.168982 0 0 0-18.203218 6.792245l-186.650903 165.730787a27.168982 27.168982 0 1 0 36.134745 40.481783l186.650903-165.459098a27.168982 27.168982 0 0 0 2.173519-38.308264 27.168982 27.168982 0 0 0-20.105046-9.237453z"  horiz-adv-x="1144" />

    


  </font>
</defs>
</svg>
